<?xml version='1.0' encoding='utf-8'?>
<svg xmlns="http://www.w3.org/2000/svg" enable-background="new 0 0 5000 909.7101" version="1.1" viewBox="0 0 5e3 909.71"> <path d="m2500 609.36c-10.347 2.8691-19.266 10.429-23.436 21.219-6.9446 18.127 2.0667 38.505 20.194 45.491 1.074 0.4147 2.156 0.7729 3.2427 1.076 1.0867-0.3031 2.1687-0.6613 3.2427-1.076 18.127-6.9858 27.138-27.364 20.194-45.491-4.1707-10.79-13.089-18.35-23.436-21.219zm-1348.1-202.01c10.543 19.177 19.016 39.725 25.941 61.115 13.061-2.4579 24.18-6.3046 34.865-12.297-7.2118-18.869-15.767-37.451-25.689-55.639-77.763-141.54-309.63-326.14-508.66-24.947l3.8843 0.9937c175.02-213.77 387.06-119.12 469.66 30.774h-0.0075zm2696.3 0c82.607-149.9 294.64-244.54 469.66-30.774l3.8848-0.9937c-199.03-301.19-430.9-116.59-508.66 24.947-9.9216 18.187-18.477 36.77-25.689 55.639 10.686 5.9922 21.804 9.8389 34.865 12.297 6.9258-21.39 15.398-41.938 25.941-61.115h-0.0077zm-3821.3-141c-57.517 150.86-15.146 360.21 55.736 445.24 299.08 358.79 694.11 144.76 1236.1-159.85 133.21-74.963 341.52-153.29 491.16-152.84 91.705 0.1844 218.03-0.8883 335.94 30.134-167.42-16.968-373.94 34-381.25 245.8-4.1289 117.97 154.39 205.32 229.5 106.15 28.252-37.493 22.399-103.11-23.024-130.83-47.271-28.768-115.62 1.9421-106.07 63.784 0.8695 17.48 17.566 46.955 61.714 53.61-63.614 35.671-141.86-49.187-138.02-114.5 10.313-172.41 140.33-191.3 237.1-195.44 130-5.4991 265.17 35.592 362.41 99.579 18.188 11.966 35.035 25.173 50.723 39.371 14.013-4.1969 27.883-10.377 41.626-17.382-10.599-9.4664-21.74-18.413-33.048-27.116-187.97-168.94-413.66-210.89-609.19-204.39-118.01-0.8468-241.19 15.771-359.02 45.657-108.4 27.567-343.53 113.75-445.39 167.68-55.823 29.682-139.78 71.18-232.72 105.06-11.284-45.054 33.006-66.136 5.3524-105.76 19.572 21.187 43.794 39.269 74.921 27.428 0.286-80.191-81.99-104.29-86.992-153.56-15.255-150.93 149.1-143.38 147.05-80.398l-2.4353 3.6585c-54.317 11.141-14.058 85.893 25.523 53.425 32.513-26.54 8.164-74.518-22.113-98.141-86.081-67.273-191.94 45.645-225.26 93.304-42.785 61.055-128.16 132.11-210.55 147.82-73.058 13.972-233.85-79.698-147.19-165.88 17.13-17.032 33.126-19.531 55.161-12.112 23.788 8.0623 22.836 38.196 28.79 40.696 43.218 17.754 68.308-20.066 43.756-70.743 54.732-7.4638 82.735 65.248 31.128 93.997 132.85-19.015 21.27-255.94-107.55-172.9-130.22 83.94-125.68 274.83 48.013 295.79-13.994 21.782-36.977 17.134-63.016 63.49 104.37 22.798 131.16 26.995 179.73-24.097 38.629-40.673 70.604-120.83 127.56-115.62 5.5594 72.358-61.653 29.434-51.34 171.94 56.798 0.9711 51.257-46.195 78.787-48.156 8.1829 26.144 17.382 42.307 57.498 60.577-159.69 56.403-343.2 88.05-456.83-1.6523-211.85-167.17-128.39-509.58 154.24-461.05 55.142 9.4475 143.56 57.042 128.6 148.08l1.882 0.5797c37.658-111.88-130.02-217-276.7-152.48-104.56 46.09-149.64 163.41-143.23 258.85 20.476 304.58 338.33 316.09 567.68 240.06 295.21-97.798 446.51-235.16 690.34-285.86 3.3047-0.6624 6.7788-1.261 10.084-1.9234-200.99 66.426-394.22 187.52-585.86 286.66-420.31 217.25-681.66 57.641-740.29-162.3-29.347-109.72 2.6461-309.54 143.52-403.53 161.48-107.68 424.48 40.259 361.26 221.68 98.811-152.74-34.41-292.98-120.25-326.3-108.36-42.028-190.74-43.94-293.94 4.8066-107.64 50.757-154.27 106.12-201.51 229.86l-0.0564 0.0338zm4946.2-0.0338c-47.248-123.74-93.873-179.1-201.51-229.86-103.2-48.747-185.58-46.835-293.94-4.8066-85.837 33.326-219.06 173.56-120.25 326.3-63.223-181.42 199.77-329.36 361.26-221.68 140.87 93.989 172.87 293.82 143.52 403.53-58.634 219.95-319.98 379.56-740.29 162.3-191.63-99.142-384.86-220.24-585.86-286.66 3.3047 0.6624 6.7788 1.2609 10.084 1.9234 243.84 50.7 395.14 188.06 690.34 285.86 229.35 76.035 547.2 64.525 567.68-240.06 6.4063-95.442-38.671-212.76-143.23-258.85-146.68-64.525-314.36 40.602-276.7 152.48l1.8818-0.5797c-14.962-91.042 73.453-138.64 128.6-148.08 282.63-48.54 366.09 293.88 154.24 461.05-113.63 89.702-297.14 58.055-456.83 1.6523 40.116-18.27 49.315-34.433 57.498-60.577 27.53 1.961 21.989 49.127 78.787 48.156 10.313-142.5-56.899-99.579-51.34-171.94 56.96-5.2093 88.935 74.944 127.56 115.62 48.57 51.092 75.354 46.895 179.73 24.097-26.039-46.357-49.022-41.708-63.016-63.49 173.69-20.958 178.24-211.85 48.013-295.79-128.82-83.044-240.41 153.88-107.55 172.9-51.607-28.749-23.604-101.46 31.128-93.997-24.552 50.678 0.5381 88.498 43.756 70.743 5.9546-2.4993 5.002-32.633 28.79-40.696 22.034-7.4187 38.031-4.9195 55.161 12.112 86.661 86.183-74.134 179.85-147.19 165.88-82.385-15.707-167.76-86.763-210.55-147.82-33.318-47.659-139.18-160.58-225.26-93.304-30.277 23.622-54.626 71.601-22.113 98.141 39.582 32.468 79.841-42.284 25.523-53.425l-2.4351-3.6585c-2.0476-62.986 162.3-70.529 147.05 80.398-5.002 49.27-87.278 73.37-86.992 153.56 31.128 11.841 55.349-6.2405 74.921-27.428-27.653 39.619 16.637 60.701 5.3525 105.76-92.943-33.876-176.9-75.373-232.72-105.06-101.85-53.922-336.99-140.11-445.39-167.68-117.83-29.886-241.01-46.504-359.02-45.657-195.54-6.5079-421.22 35.445-609.19 204.39-11.307 8.7023-22.448 17.649-33.048 27.116 13.742 7.0047 27.612 13.185 41.626 17.382 15.688-14.198 32.535-27.405 50.723-39.371 97.242-63.987 232.41-105.08 362.41-99.579 96.767 4.1328 226.79 23.024 237.1 195.44 3.843 65.312-74.406 150.17-138.02 114.5 44.148-6.6547 60.844-36.13 61.714-53.61 9.5491-61.842-58.796-92.552-106.07-63.784-45.423 27.718-51.276 93.334-23.024 130.83 75.109 99.165 233.63 11.822 229.5-106.15-7.3132-211.8-213.83-262.77-381.25-245.8 117.91-31.022 244.23-29.95 335.94-30.134 149.64-0.4554 357.95 77.876 491.16 152.84 541.97 304.6 937 518.63 1236.1 159.85 70.882-85.031 113.25-294.38 55.736-445.24l-0.0564-0.034zm-3700.2 562.47c-57.972 45.224-122.5 58.431-179 31.636 47.599 56.527 141.97 79.137 230.07-13.102-0.2898 10.129-14.386 38.377-57.539 54.75 76.039 32.716 197.11-124.17 194.09-219.37 5.9734 113.03 76.743 122.52 107.81 148.02-10.253-38.584 40.154-69.9 38.501-110.49-1.7804-42.615-77.857-49.436-80.834-123.8 23.788 29.72 59.504 47.58 88.626 46.669-71.778-147.63 161.56-233.01 208.87-147.81 0 0 62.459-80.319 175.51-74.364-214.2-35.712-406.29 21.68-502.79 89.243-118.97 83.292-135.66 253.45-172.14 274.84-53.903 31.538-129.48 7.8139-131.28 7.7311 11.924 20.852 47.618 38.69 80.108 36.044l0.0039 3e-4zm2454.3-3e-4c32.49 2.6461 68.184-15.191 80.108-36.044-1.7993 0.0828-77.379 23.807-131.28-7.7311-36.48-21.394-53.177-191.55-172.14-274.84-96.5-67.563-288.59-124.96-502.79-89.243 113.05-5.9546 175.51 74.364 175.51 74.364 47.309-85.193 280.65 0.1844 208.87 147.81 29.122 0.9109 64.838-16.949 88.626-46.669-2.9771 74.364-79.054 81.184-80.834 123.8-1.6523 40.59 48.754 71.906 38.502 110.49 31.064-25.504 101.83-34.993 107.81-148.02-3.0188 95.198 118.05 252.09 194.09 219.37-43.154-16.373-57.25-44.622-57.54-54.75 88.106 92.239 182.48 69.629 230.08 13.102-56.504 26.795-121.03 13.588-179-31.636l0.0039-3e-4z"/> </svg>